<?xml version="1.0" encoding="utf-8"?>
<!-- Generator: Adobe Illustrator 21.0.0, SVG Export Plug-In . SVG Version: 6.00 Build 0)  -->
<svg version="1.1" id="Layer_1" xmlns="http://www.w3.org/2000/svg" xmlns:xlink="http://www.w3.org/1999/xlink" x="0px" y="0px"
	 viewBox="0 0 6803.1 6803.1" style="enable-background:new 0 0 6803.1 6803.1;" xml:space="preserve">
<style type="text/css">
	.st0{fill:#FFFFFF;}
</style>
<g>
	<g>
		<path class="st0" d="M1052.7,4008.4l90.6,53.7V2806.4l-90.6,50.6V4008.4z M1234.2,4115.9l90.6,53.8l-2-1492.1l-90.5,53.6l0.1,9.7
			L1234.2,4115.9z M1415.6,4224.9l90.7,52.4l-2-1707.3l-90.6,53.7l0.1,9.7L1415.6,4224.9z M1595.3,4331.1l92.5,53.8l-2-1922.4
			l-90.6,53.7L1595.3,4331.1z M1776.8,4438.6l90.6,53.8V2354.8l-90.6,53.7L1776.8,4438.6z"/>
		<path class="st0" d="M733.4,1829.9L1781,2409.1l87.3-51.4L821.9,1776.5L733.4,1829.9z M750.4,2040.1l851.3,476.6l84.2-53.9
			l-850.1-476.8L750.4,2040.1z M556.5,2144.3l864.5,482.1l84.2-53.9l-854.9-476.2L556.5,2144.3z M177.4,2156.5L1237,2732.1
			l84.2-53.9l-1055.3-575L177.4,2156.5z M12.9,2267.2l1047.3,594.7l84.2-53.9L95.3,2210.6L12.9,2267.2z"/>
		<polygon class="st0" points="902.6,5028 1868.2,4491.4 1777.8,4438.1 902.6,4927.5 		"/>
		<polygon class="st0" points="902.6,4821.7 1687.5,4385.1 1595.8,4331.7 902.6,4720.9 		"/>
		<polygon class="st0" points="902.6,4613.1 1506.6,4277.6 1421.1,4221.9 902.6,4512.1 		"/>
		<polygon class="st0" points="902.6,4408 1325.6,4168.7 1238,4114.7 902.6,4307 		"/>
		<polygon class="st0" points="902.7,4199 1143.3,4062.8 1061.1,4003.8 902.7,4097.1 		"/>
		<polygon class="st0" points="902.4,4097.1 823.1,4052.2 733.1,4103.2 902.4,4199.1 		"/>
		<polygon class="st0" points="902.4,4927.5 89.9,4467.8 0,4518.8 902.4,5028 		"/>
		<polygon class="st0" points="902.4,4720.9 272.2,4364.4 182.4,4415.4 902.4,4821.7 		"/>
		<polygon class="st0" points="902.4,4512.1 456.6,4259.9 366.7,4310.9 902.4,4613.1 		"/>
		<polygon class="st0" points="902.4,4307 637.7,4157.3 547.9,4208.2 902.4,4408 		"/>
		<polygon class="st0" points="910.8,1827.4 823.1,1775.1 178.7,2155.8 275,2203.9 		"/>
		<polygon class="st0" points="925.5,2038 837.8,1985.8 558.6,2145.6 654.9,2193.7 		"/>
		<path class="st0" d="M636.9,4062.4V2719l-90.5-50.8l0,1445.1L636.9,4062.4z M455.1,4164.5l0-1547.6l-86.5-48.6l0,1644.8
			L455.1,4164.5z M273.4,4266.6l1.8-1750.8l-95.2-53.4V4319L273.4,4266.6z M3.9,2363.5l0,2054.4l85.2-47.8l1.8-1957.7L3.9,2363.5z
			 M823.3,3957.8V2823.6l-90.5-50.8v1235.9L823.3,3957.8z"/>
	</g>
	<g>
		<path class="st0" d="M6717.9,3584c0,21.6-4.3,42.3-12.8,62.1c-8.5,19.9-19.9,36.9-34.1,51c-14.2,14.2-31,25.5-50.3,34
			c-19.3,8.5-40.4,12.7-63.1,12.7h-34.1c-21.6,0-42.4-4.2-62.2-12.7c-19.9-8.5-36.9-19.8-51.1-34c-14.2-14.2-25.6-31.2-34.1-51
			c-8.5-19.8-12.8-40.5-12.8-62.1v-898.1c0-22.7,4.3-43.6,12.8-62.9c8.5-19.3,19.9-36,34.1-50.2c14.2-14.2,31.2-25.5,51.1-34
			c19.9-8.5,40.6-12.8,62.2-12.8h34.1c22.7,0,43.7,4.2,63.1,12.8c19.3,8.5,36.1,19.8,50.3,34c14.2,14.2,25.6,30.9,34.1,50.2
			c8.5,19.3,12.8,40.3,12.8,62.9V3584z M6803.1,2685.9c0-34-6.3-66.1-18.8-96.1c-12.5-30-29.8-56.1-52-78.2
			c-22.2-22.1-48.3-39.4-78.4-51.9c-30.1-12.5-62.2-18.7-96.3-18.7h-34.1c-34.1,0-65.9,6.3-95.5,18.7
			c-29.6,12.5-55.4,29.8-77.6,51.9c-22.2,22.1-39.8,48.2-52.8,78.2c-13.1,30.1-19.6,62.1-19.6,96.1V3584c0,34,6.5,65.8,19.6,95.3
			c13,29.5,30.7,55.3,52.8,77.4c22.2,22.1,48,39.7,77.6,52.7c29.5,13,61.4,19.6,95.5,19.6h34.1c34.1,0,66.2-6.5,96.3-19.6
			c30.1-13,56.3-30.6,78.4-52.7c22.2-22.1,39.5-47.9,52-77.4c12.5-29.5,18.8-61.2,18.8-95.3V2685.9z M5846.7,2451.1l-185.8,1173.7
			l-182.4-1173.7h-185.8L5239.8,3812h85.2l51.2-1275.8h34.1l208,1258.7h85.2l209.7-1258.7h34.1l49.4,1275.8h85.2l-51.1-1360.8
			H5846.7z M5120.5,3812l-242.1-1313.2c-2.3-14.7-10.5-28.1-24.7-40c-14.2-11.9-30.4-17.9-48.6-17.9h-58c-18.2,0-34.4,6.3-48.6,18.7
			c-14.2,12.5-22.5,25.5-24.7,39.1l-237,1313.2h85.2l66.5-364H4967l68.2,364H5120.5z M4752.2,2548.1c1.1-3.4,2.6-7.9,4.3-13.6
			c1.7-5.7,6-8.5,12.8-8.5h13.6c4.5,0,9.1,3.4,13.6,10.2c2.3,3.4,3.4,7.4,3.4,11.9l151.7,814.8h-347.8L4752.2,2548.1z M4300.4,3812
			V2451.1h-85.2v1275.8h-34.1l-281.3-1275.8h-187.5V3812h85.2V2536.2h34.1L4116.3,3812H4300.4z M3257.1,3330.6
			c-1.1,3.4-2.6,8-4.3,13.6c-1.7,5.7-6,8.5-12.8,8.5h-13.6c-3.4,0-6-1.4-7.7-4.3c-1.7-2.8-3.7-5.4-6-7.7c-2.3-3.4-3.4-6.8-3.4-10.2
			l-237-879.4h-85.2l243.8,928.8c2.3,12.5,8.5,24.1,18.7,34.9c10.2,10.8,23.3,17.9,39.2,21.3V3812h85.2v-374.2
			c15.9-3.4,29.5-10.8,40.9-22.1c11.4-11.3,18.2-23.2,20.5-35.7l240.4-928.8h-85.2L3257.1,3330.6z M2530.8,2536.2
			c44.3,0,82.1,14.2,113.4,42.5c31.2,28.4,46.9,64.1,46.9,107.2V3567c0,21.6-4.3,42.3-12.8,62.1c-8.5,19.9-19.9,36.9-34.1,51
			c-14.2,14.2-31,25.5-50.3,34c-19.3,8.5-40.4,12.8-63.1,12.8h-194.4V2536.2H2530.8z M2251.2,3812h279.6c34.1,0,66.2-6.5,96.3-19.6
			c30.1-13,56.2-30.6,78.4-52.7c22.2-22.1,39.5-47.9,52-77.4c12.5-29.5,18.7-61.2,18.7-95.3v-881.1c0-34-6.3-65.5-18.7-94.4
			c-12.5-28.9-29.8-53.6-52-74c-22.2-20.4-48.3-36.6-78.4-48.5c-30.1-11.9-62.2-17.9-96.3-17.9h-279.6V3812z"/>
		<path class="st0" d="M6803.1,4227.9c0-8.9-1.6-13-4.9-13c-6.5,0-17.1,7.3-22.7,15.4l-19.5,28.4c-35.7,52-59.3,66.6-96.7,66.6
			h-25.2c-13.8,0-20.3-9.8-20.3-29.3v-245.4c0-34.9,2.4-38.2,17.9-39.8l39.8-4.1c4.1-0.8,5.7-2.4,5.7-6.5c0-4.9-4.1-7.3-13-7.3
			l-74.8,2.4l-90.2-2.4c-15.4-0.8-23.6,3.3-23.6,8.9c0,4.1,4.1,6.5,12.2,6.5h10.6c22.7,0,34.1,6.5,34.1,18.7v232.4
			c0,63.4-4.1,67.4-43.1,67.4h-5.7c-7.3,0-10.5,2.4-10.5,6.5c0,4.1,4.1,5.7,11.4,5.7h255.9c7.3,0,17.1-0.8,35.8-3.3
			c10.6-17.9,12.2-29.3,17.9-56.9l6.5-34.9C6803.1,4236.9,6803.1,4232.8,6803.1,4227.9 M6394.5,4229.5c0.8-8.1-2.4-12.2-8.1-12.2
			c-2.4,0-13,3.3-16.2,10.6l-18.7,43.1c-20.3,47.9-57.7,58.5-79.6,58.5c-62.6,0-82.9-43.1-82.9-112.1v-20.3l2.4-14.6l19.5-4.9
			l82.1-4.1c7.3,0,8.1-7.3,8.1-10.5c0-4.9-5.7-17.9-14.6-17.9H6189v-113.7c0-12.2,2.4-18.7,8.1-18.7h63.4c31.7,0,49.6,4.9,78,47.9
			l21.9,33.3c4.9,7.3,8.1,13,18.7,13c3.3,0,4.1-3.3,4.1-10.6c0-4.1-2.4-17.1-3.3-20.3l-6.5-32.5c-4.9-22.7-5.7-32.5-14.6-47.9
			c-15.4-1.6-23.6-0.8-34.9-0.8h-267.3c-2.4,0-4.1,1.6-4.1,6.5c0,4.1,1.6,5.7,4.1,5.7h13.8c29.2,0,37.4,14.6,37.4,44.7v113.7
			c0,112.9,47.1,181.2,161.7,181.2c43.1,0,72.3-8.9,109.7-26.8c4.1-1.6,4.1-8.9,4.9-14.6L6394.5,4229.5z M5890,4249.9
			c0,62.6-37.4,70.7-54.4,70.7c-20.3,0-48.8-16.2-48.8-62.6v-63.4c0-15.4,3.3-23.6,9.7-23.6h29.3
			C5877.8,4171.1,5890,4218.2,5890,4249.9 M5877.8,4082.5c0,61.7-44.7,71.5-64.2,71.5h-17.9c-7.3,0-10.6-8.1-10.6-24.4v-95.9
			c0-17.1,7.3-26,22.7-26C5859.9,4007.8,5877.8,4050.8,5877.8,4082.5 M5986.7,4249.9c0-49.6-36.5-78.8-108.9-85.3l-34.1-3.3
			l34.1-8.1c83.7-19.5,84.5-60.9,84.5-84.5c0-62.6-69.9-76.4-138.1-76.4c-27.6,0-65.8,2.4-84.5,2.4h-72.3c-13.8,0-21.1,3.3-21.1,8.9
			c0,4.1,4.1,6.5,13,6.5h9.7c23.6,0,35.7,6.5,35.7,18.7v277.8c0,20.3-1.6,21.9-1.6,28.4c0,4.9,1.6,7.3,4.9,7.3
			c4.1,0,5.7-1.6,15.4-12.2c7.3-8.1,14.6-11.4,21.9-11.4c26,0,38.2,21.9,104.8,21.9C5944.4,4340.8,5986.7,4291.3,5986.7,4249.9
			 M5377.4,4067.9l48.7,125.1c0.8,1.6,0.8,3.3,0.8,4.1c0,4.9-5.7,7.3-16.2,7.3H5357c-21.1,0-30.9-3.2-30.9-8.9
			c0-7.3,4.1-17.1,5.7-20.3L5377.4,4067.9z M5323.7,4329.5c-17.9,0-48.8-11.4-38.2-37.4l19.5-47.9c6.5-15.4,7.3-15.4,9.7-17.9
			c2.4-2.4,14.6-4.1,26-4.1h78.8c17.9,0,20.3,4.9,29.2,25.2l23.6,54.4c4.9,11.4,1.6,18.7-15.4,21.9l-23.6,4.9
			c-9.7,1.6-12.2,1.6-12.2,5.7c0,4.1,2.4,6.5,8.9,6.5l103.2-3.3l69.1,1.6c4.9,0,6.5-1.6,6.5-6.5c0-6.5-2.4-8.1-16.2-8.1
			c-13.8,0-28.4-9.8-36.6-29.3l-111.3-262.4c-3.3-7.3-4.1-20.3-4.1-25.2c0-11.4-1.6-17.9-5.7-17.9c-4.1,0-10.6,2.4-14.6,3.3
			l-94.2,14.6c-2.4,0-4.1,3.3-4.1,4.9c0,4.1,6.5,7.3,13.8,10.6l18.7,8.1c10.5,4.9,9.7,8.9,8.9,11.4L5262,4287.2
			c-13,31.7-30.9,39.8-45.5,40.6c-14.6,0.8-22.7-0.8-22.7,7.3c0,4.9,5.7,5.7,13.8,5.7s36.6-4.1,54.4-4.1c13,0,61.8,5.7,70.7,4.9
			c6.5-0.8,9.7-3.3,9.7-8.1c0-3.3-1.6-4.1-4.9-4.1H5323.7z M5183.2,4227.9c0-8.9-1.6-13-4.9-13c-6.5,0-17.1,7.3-22.7,15.4
			l-19.5,28.4c-35.7,52-59.3,66.6-96.7,66.6h-25.2c-13.8,0-20.3-9.8-20.3-29.3v-245.4c0-34.9,2.4-38.2,17.9-39.8l39.8-4.1
			c4.1-0.8,5.7-2.4,5.7-6.5c0-4.9-4.1-7.3-13-7.3l-74.8,2.4l-90.2-2.4c-15.4-0.8-23.6,3.3-23.6,8.9c0,4.1,4.1,6.5,12.2,6.5h10.6
			c22.7,0,34.1,6.5,34.1,18.7v232.4c0,63.4-4.1,67.4-43.1,67.4h-5.7c-7.3,0-10.6,2.4-10.6,6.5c0,4.1,4.1,5.7,11.4,5.7h255.9
			c7.3,0,17.1-0.8,35.7-3.3c10.6-17.9,12.2-29.3,17.9-56.9l6.5-34.9C5183.2,4236.9,5183.2,4232.8,5183.2,4227.9 M4608.8,4234.4
			c0-53.6-31.7-75.5-73.1-95.9l-60.9-30.1c-37.4-18.7-58.5-30.9-58.5-59.3c0-37.4,41.4-48.8,61.7-48.8c19.5,0,53.6,8.9,72.3,52.8
			l17.1,39c2.4,6.5,12.2,9.8,14.6,9.8c4.9,0,8.1-4.1,7.3-11.4l-9.8-68.2c-0.8-5.7-0.8-12.2-4.1-13.8
			c-34.1-16.2-62.6-23.6-100.7-23.6c-86.9,0-121.9,56.1-121.9,99.9c0,65,39.8,86.1,127.6,125.9c67.4,30.9,65,48.8,65,61.7
			c0,27.6-28.4,56.1-60.1,56.1c-43.9,0-67.4-21.9-83.7-58.5c-10.6-23.6-21.1-32.5-39-32.5c-15.4,0-24.4,15.4-24.4,33.3
			c0,40.6,60.1,75.6,134.9,75.6C4550.3,4346.5,4608.8,4304.3,4608.8,4234.4 M4305,4093.9c0-4.1,0-8.1-2.4-13
			c-2.4-7.3-4.9-20.3-7.3-39l-4.9-32.5c-2.4-13.8-4.9-17.9-14.6-17.9c-66.6,0-126.7,7.3-180.4,6.5l-89.4-0.8
			c-18.7,0-30.1-3.2-65-3.2c-14.6,0-19.5,8.1-24.4,52c-4.1,39-7.3,46.3-7.3,52.8c0,4.9,3.2,8.9,7.3,8.9c1.6,0,4.9-1.6,6.5-4.1
			l53.6-79.6c5.7-8.1,15.4-12.2,46.3-12.2h30.9c9.8,0,14.6,7.3,14.6,21.9v253.5c0,26.8-4.9,34.1-41.4,39
			c-11.4,0.8-14.6,1.6-14.6,4.9v6.5c0,3.3,6.5,1.6,13,1.6h169.8c5.7,0,12.2,0.8,12.2-1.6l0.8-7.3c0-3.3-3.3-4.9-15.4-4.9
			c-38.2,0-43.1-4.1-43.1-53.6v-248.6c0-6.5,2.4-9.7,8.1-9.7l52.8-2.4c14.6-0.8,21.1,4.9,35.8,25.2l34.9,48.7l7.3,14.6
			c1.6,3.3,6.5,5.7,8.9,5.7C4302.5,4105.3,4305,4102,4305,4093.9 M3877.6,3998c0.8-2.4-3.2-3.3-12.2-3.3H3742
			c-3.3,0-4.1,0.8-4.1,4.9c0,5.7,2.4,7.3,12.2,8.1c29.3,2.4,47.1,7.3,47.1,27.6v184.4l-181.2-225h-126.7c-3.3,0-4.1,3.3-4.1,6.5
			c0,4.1,0.8,5.7,3.3,5.7h13.8c26.8,0,43.1,18.7,43.1,93.4v193.4c0,25.2-4.9,26.8-21.9,30.1l-27.6,4.1c-2.4,0-4.9,0.8-4.9,1.6
			l-1.6,6.5c-0.8,2.4,3.3,3.3,12.2,3.3H3625c3.3,0,4.1-0.8,4.1-4.9c0-5.7-2.4-7.3-12.2-8.1c-29.2-2.4-47.1-7.3-47.1-27.6v-214.5
			l3.3-17.1l235.6,292.5c4.9,5.7,12.2,1.6,12.2-5.7c0-4.1,0.8-8.9,0.8-30v-283.5c0-25.2,4.9-26.8,21.9-30.1l27.6-4.1
			c2.4,0,4.9-0.8,4.9-1.6L3877.6,3998z M3405.6,4229.5c0.8-8.1-2.4-12.2-8.1-12.2c-2.4,0-13,3.3-16.2,10.6l-18.7,43.1
			c-20.3,47.9-57.7,58.5-79.6,58.5c-62.6,0-82.9-43.1-82.9-112.1v-20.3l2.4-14.6l19.5-4.9l82.1-4.1c7.3,0,8.1-7.3,8.1-10.5
			c0-4.9-5.7-17.9-14.6-17.9h-97.5v-113.7c0-12.2,2.4-18.7,8.1-18.7h63.4c31.7,0,49.6,4.9,78,47.9l21.9,33.3c4.9,7.3,8.1,13,18.7,13
			c3.3,0,4.1-3.3,4.1-10.6c0-4.1-2.4-17.1-3.3-20.3l-6.5-32.5c-4.9-22.7-5.7-32.5-14.6-47.9c-15.4-1.6-23.6-0.8-34.9-0.8h-267.3
			c-2.4,0-4.1,1.6-4.1,6.5c0,4.1,1.6,5.7,4.1,5.7h13.8c29.2,0,37.4,14.6,37.4,44.7v113.7c0,112.9,47.1,181.2,161.7,181.2
			c43.1,0,72.3-8.9,109.7-26.8c4.1-1.6,4.1-8.9,4.9-14.6L3405.6,4229.5z M3043.3,3998c0-4.9-5.7-5.7-13.8-5.7
			c-8.1,0-36.6,4.1-54.4,4.1c-13,0-61.8-4.9-70.7-4.9c-8.9,0-12.2,3.3-12.2,8.1c0,3.3,1.6,4.1,4.9,4.1h13.8
			c17.1,0,53.6,11.4,42.2,38.2l-82.1,201.5l-95-212.9c-5.7-12.2-1.6-19.5,15.4-21.9l30-4.9c9.8-1.6,12.2-1.6,12.2-5.7
			c0-4.1-2.4-6.5-8.9-6.5l-110.5,3.3l-69.1-1.6c-4.9,0-6.5,1.6-6.5,6.5c0,6.5,2.4,8.1,16.2,8.1c13.8,0,28.4,9.8,36.6,29.3l134.9,303
			c4.9,12.2,6.5,21.1,13,21.1c8.1,0,11.4-9.7,13-13l122.7-301.4c13.8-32.5,30.9-40.6,45.5-40.6
			C3035.2,4006.1,3043.3,4006.1,3043.3,3998 M2593.2,4229.5c0.8-8.1-2.4-12.2-8.1-12.2c-2.4,0-13,3.3-16.2,10.6l-18.7,43.1
			c-20.3,47.9-57.7,58.5-79.6,58.5c-62.6,0-82.9-43.1-82.9-112.1v-20.3l2.4-14.6l19.5-4.9l82-4.1c7.3,0,8.1-7.3,8.1-10.5
			c0-4.9-5.7-17.9-14.6-17.9h-97.5v-113.7c0-12.2,2.4-18.7,8.1-18.7h63.4c31.7,0,49.6,4.9,78,47.9l21.9,33.3c4.9,7.3,8.1,13,18.7,13
			c3.3,0,4.1-3.3,4.1-10.6c0-4.1-2.4-17.1-3.3-20.3l-6.5-32.5c-4.9-22.7-5.7-32.5-14.6-47.9c-15.4-1.6-23.6-0.8-34.9-0.8h-267.3
			c-2.4,0-4.1,1.6-4.1,6.5c0,4.1,1.6,5.7,4.1,5.7h13.8c29.3,0,37.4,14.6,37.4,44.7v113.7c0,112.9,47.1,181.2,161.7,181.2
			c43.1,0,72.3-8.9,109.7-26.8c4.1-1.6,4.1-8.9,4.9-14.6L2593.2,4229.5z"/>
	</g>
</g>
</svg>
